<svg width="163" height="65" viewBox="0 0 163 65" fill="none" xmlns="http://www.w3.org/2000/svg">
<path d="M133.665 52.3555C133.665 52.7398 133.356 53.0201 132.988 53.0201C132.665 53.0201 132.46 52.826 132.46 52.5148C132.46 52.1508 132.74 51.8323 133.151 51.8323C133.476 51.8323 133.665 52.0378 133.665 52.3555Z" fill="#231F20"/>
<path d="M33.7993 51.2874C33.6485 51.7782 33.6485 52.0625 33.7707 52.2649C33.8799 52.4737 34.153 52.6516 34.7536 52.6516C35.6444 52.6516 36.5719 52.403 37.4863 51.7359C38.827 50.7569 39.4969 48.9848 39.4969 47.7457C39.4969 46.6269 39.263 44.6103 36.3942 44.6379C35.9305 44.6379 35.849 44.7224 35.6697 45.2798L33.7993 51.2874ZM33.32 44.6379C33.2108 44.5591 33.2385 44.3145 33.3477 44.2447C33.8547 44.1902 34.9321 44.1074 36.2043 44.1074C37.7202 44.1074 38.8808 44.395 39.6868 44.9109C40.6974 45.5788 41.1644 46.6269 41.1644 47.8814C41.1644 49.3512 40.4676 50.7569 39.347 51.6961C37.7602 53.0164 35.6844 53.1805 34.4561 53.1805C33.8115 53.1805 33.1293 53.1391 32.5694 53.1391C31.981 53.1391 31.4341 53.1513 30.7642 53.1805C30.655 53.1107 30.655 52.8385 30.7927 52.7849L31.1758 52.7288C31.7911 52.6516 31.9125 52.5013 32.3233 51.1761L33.9892 45.8526C34.263 44.9654 34.2345 44.802 33.7862 44.7224L33.32 44.6379Z" fill="#231F20"/>
<path d="M44.0661 48.616C43.5632 49.149 43.2323 49.8697 43.0832 50.3588C43.78 50.1142 44.203 49.8851 44.6423 49.4366C44.9822 49.0946 45.1468 48.6322 45.1468 48.4129C45.1468 48.2366 45.0653 48.0732 44.8884 48.0732C44.6961 48.0732 44.4084 48.2366 44.0661 48.616ZM41.4019 51.8457C41.4019 50.8236 42.0449 49.2993 43.3448 48.3178C44.0954 47.758 44.7368 47.5833 45.2544 47.5833C45.9113 47.5833 46.3473 48.0732 46.3473 48.5226C46.3473 49.7486 44.4899 50.4157 42.974 50.8236C42.9055 51.0129 42.8501 51.3273 42.8501 51.7092C42.8501 52.2113 43.0702 52.4859 43.4532 52.4859C43.9455 52.4859 44.4377 52.1999 45.0653 51.6279C45.2022 51.6279 45.3114 51.7661 45.2829 51.8993C44.5445 52.9214 43.5901 53.3285 42.6879 53.3285C41.7857 53.3285 41.4019 52.594 41.4019 51.8457Z" fill="#231F20"/>
<path d="M49.0169 48.9976L48.5385 50.4008H48.6216C49.0299 49.6533 49.4961 48.8749 49.8351 48.4541C50.2744 47.9089 50.642 47.5839 51.0528 47.5839C51.4912 47.5839 51.6811 47.9649 51.6811 48.3444C51.6811 48.7677 51.3665 49.4364 50.9435 49.4364C50.7797 49.4364 50.7251 49.2852 50.6689 49.0382C50.6167 48.7677 50.5328 48.632 50.3959 48.632C50.2345 48.632 49.9183 48.9294 49.4692 49.6809C48.9615 50.4983 48.3885 51.8186 47.8278 53.1105C47.7602 53.2754 47.5833 53.3282 47.3641 53.3282C47.0902 53.3282 46.6126 53.2478 46.7357 52.8676C47.0332 51.9819 47.7186 50.0896 48.1016 48.8473C48.1701 48.632 48.1554 48.4955 48.0177 48.4955C47.7186 48.4955 47.2809 48.8749 46.9541 49.2584C46.8156 49.2584 46.708 49.1496 46.7357 48.9846C47.0902 48.3704 47.7732 47.5839 48.6216 47.5839C49.3592 47.5839 49.2345 48.3704 49.0169 48.9976Z" fill="#231F20"/>
<path d="M53.9266 45.7269C53.9266 45.2931 54.2387 44.7909 54.8141 44.7909C55.2094 44.7909 55.4425 45.0095 55.4425 45.4296C55.4425 45.9187 55.0724 46.3688 54.5533 46.3688C54.145 46.3688 53.9266 46.069 53.9266 45.7269ZM53.2689 52.1197C53.2142 52.2538 53.202 52.3756 53.3112 52.3756C53.528 52.3756 54.2811 51.8589 54.6772 51.4364C54.8255 51.4364 54.9355 51.5713 54.9103 51.7086C54.5272 52.2789 53.2142 53.3279 52.1776 53.3279C51.9437 53.3279 51.7383 53.0297 51.7383 52.907C51.7383 52.7567 51.7676 52.6072 51.863 52.3756L53.3789 48.7933C53.4319 48.656 53.4319 48.5764 53.3504 48.5764C53.1865 48.5764 52.6136 48.929 52.1776 49.3117C52.0415 49.3117 51.9437 49.1492 51.9852 49.0379C52.7228 48.1815 53.8834 47.5835 54.4987 47.5835C54.6894 47.5835 54.9103 47.7728 54.9502 47.9646C54.9787 48.0734 54.9225 48.2628 54.8011 48.5463L53.2689 52.1197Z" fill="#231F20"/>
<path d="M56.0329 52.4737C56.0329 52.1723 56.1152 51.7661 56.3067 51.2721L57.2228 48.9572C57.3157 48.7241 57.3035 48.5226 57.1665 48.5226C56.9204 48.5226 56.3189 48.9979 55.9497 49.4196C55.812 49.4196 55.7036 49.2847 55.7036 49.175C56.1013 48.5226 57.1535 47.5833 58.1372 47.5833C58.5471 47.5833 58.7786 47.9887 58.7093 48.3698C58.6694 48.564 58.5325 48.9572 58.464 49.1214L57.6172 51.2997C57.5097 51.5719 57.411 51.8725 57.3996 52.0902C57.3996 52.2796 57.5097 52.4859 57.7827 52.4859C58.0557 52.4859 58.6148 52.1593 59.1478 51.4906C59.7216 50.7691 60.0353 49.76 60.05 49.3115C60.05 48.9296 60.0076 48.5762 59.8992 48.2918C59.9392 47.8531 60.2399 47.5833 60.6107 47.5833C61.1959 47.5833 61.3084 48.1537 61.2929 48.5226C61.2798 49.5292 60.2122 51.3549 58.9709 52.3494C57.8764 53.2204 57.2228 53.3285 56.7704 53.3285C56.3067 53.3285 56.0329 52.7849 56.0329 52.4737Z" fill="#231F20"/>
<path d="M64.1511 48.616C63.6466 49.149 63.3198 49.8697 63.1682 50.3588C63.865 50.1142 64.288 49.8851 64.7264 49.4366C65.0687 49.0946 65.2309 48.6322 65.2309 48.4129C65.2309 48.2366 65.1511 48.0732 64.9734 48.0732C64.7802 48.0732 64.4934 48.2366 64.1511 48.616ZM61.4868 51.8457C61.4868 50.8236 62.1315 49.2993 63.4281 48.3178C64.1796 47.758 64.8234 47.5833 65.3401 47.5833C65.9962 47.5833 66.4347 48.0732 66.4347 48.5226C66.4347 49.7486 64.5765 50.4157 63.059 50.8236C62.9913 51.0129 62.9375 51.3273 62.9375 51.7092C62.9375 52.2113 63.1551 52.4859 63.5382 52.4859C64.0296 52.4859 64.5211 52.1999 65.1511 51.6279C65.2872 51.6279 65.3956 51.7661 65.3678 51.8993C64.6303 52.9214 63.6751 53.3285 62.7729 53.3285C61.8699 53.3285 61.4868 52.594 61.4868 51.8457Z" fill="#231F20"/>
<path d="M70.045 48.5064C69.6497 48.8615 68.9121 49.7081 68.4329 50.5222C67.886 51.4363 67.6399 52.1448 67.6399 52.4438C67.6399 52.6071 67.7222 52.6884 67.8322 52.6884C68.1061 52.6884 68.9798 52.1318 69.7027 51.3388C70.4272 50.5515 70.8787 49.6927 71.0694 49.0378C71.221 48.4951 71.0971 48.0734 70.8241 48.0734C70.6187 48.0734 70.3465 48.2367 70.045 48.5064ZM71.4386 47.9645L72.3946 45.1979C72.6122 44.5707 72.6261 44.3814 72.4093 44.2449L72.08 44.0263C72.0279 43.9442 72.0531 43.8354 72.1354 43.7842C72.4631 43.6469 73.5568 43.4242 74.1843 43.4015C74.2406 43.4242 74.2952 43.4819 74.2952 43.5112C74.0474 44.1904 73.8983 44.6812 73.5429 45.6074C72.9953 47.0504 71.6847 51.0406 71.5478 51.4907C71.4525 51.8182 71.3832 52.0221 71.3579 52.1594C71.3302 52.2797 71.3579 52.391 71.4671 52.391C71.6293 52.391 72.3946 51.8726 72.8331 51.3551C72.9692 51.3551 73.0515 51.4363 73.0515 51.6004C72.6953 52.2114 71.5201 53.3286 70.4834 53.3286C70.1534 53.3286 69.9887 53.0849 69.9887 52.8809C69.9887 52.6518 70.0735 52.3634 70.2226 51.9685L70.6733 50.7424H70.6456C69.8404 51.9262 68.7353 53.3286 67.353 53.3286C66.7532 53.3286 66.3962 52.8809 66.4101 52.2001C66.4264 51.1633 67.1199 49.6927 68.1998 48.7534C69.1142 47.9645 69.9887 47.5834 70.7296 47.5834C71.001 47.5834 71.3017 47.7451 71.4386 47.9645Z" fill="#231F20"/>
<path d="M79.6154 48.3699C79.1524 49.7333 78.551 52.2114 78.128 53.5496C77.7865 54.6115 77.4711 55.4297 77.0489 55.8644C76.7221 56.187 76.009 56.8029 75.1345 56.8029C74.3692 56.8029 73.877 56.369 73.877 55.892C73.877 55.5224 74.2608 55.1844 74.5616 55.1844C74.7514 55.1844 74.8761 55.2778 74.9723 55.4557C75.2437 55.9327 75.5453 56.2057 75.7783 56.2057C75.9813 56.2057 76.1736 55.9863 76.4483 55.0479C76.912 53.4123 77.5673 50.7692 78.2494 48.3699H77.0351C76.899 48.1814 77.0082 47.8524 77.1981 47.7727H78.4157C78.7286 46.7238 79.0441 45.7837 79.5901 44.9794C80.2731 43.9857 81.1345 43.4015 82.1313 43.4015C82.908 43.4015 83.4279 43.8906 83.4279 44.4496C83.4279 44.8827 82.9919 45.2369 82.6895 45.2369C82.5005 45.2369 82.4173 45.1565 82.3921 44.9655C82.2829 44.1766 81.9536 43.8906 81.6529 43.8906C81.4491 43.8906 81.1875 44.0669 80.8322 44.7746C80.3815 45.6757 80.0824 46.71 79.7808 47.7727H81.4084C81.5168 47.9369 81.4605 48.2627 81.2429 48.3699H79.6154Z" fill="#231F20"/>
<path d="M83.1308 48.9976L82.6524 50.4008H82.7355C83.1438 49.6533 83.61 48.8749 83.9515 48.4541C84.3891 47.9089 84.7567 47.5839 85.1667 47.5839C85.6051 47.5839 85.795 47.9649 85.795 48.3444C85.795 48.7677 85.4821 49.4364 85.0574 49.4364C84.8928 49.4364 84.8407 49.2852 84.7844 49.0382C84.7314 48.7677 84.6459 48.632 84.5098 48.632C84.3476 48.632 84.0338 48.9294 83.5839 49.6809C83.077 50.4983 82.5024 51.8186 81.9425 53.1105C81.8741 53.2754 81.6972 53.3282 81.4796 53.3282C81.2066 53.3282 80.7257 53.2478 80.8496 52.8676C81.1495 51.9819 81.8341 50.0896 82.2172 48.8473C82.2856 48.632 82.2701 48.4955 82.1324 48.4955C81.8341 48.4955 81.3957 48.8749 81.0688 49.2584C80.9327 49.2584 80.8219 49.1496 80.8496 48.9846C81.2066 48.3704 81.8863 47.5839 82.7355 47.5839C83.4731 47.5839 83.3508 48.3704 83.1308 48.9976Z" fill="#231F20"/>
<path d="M88.4625 52.0357C88.9564 51.3272 89.61 49.6924 89.61 48.8068C89.61 48.4404 89.557 48.0731 89.174 48.0731C88.9278 48.0731 88.6409 48.2234 88.284 48.6711C87.6442 49.5031 86.9343 51.1224 86.9343 52.1316C86.9343 52.5419 87.112 52.8384 87.4258 52.8384C87.7518 52.8384 88.0533 52.6215 88.4625 52.0357ZM87.112 48.4956C87.9026 47.7725 88.5733 47.584 89.187 47.584C90.4038 47.584 90.8822 48.4127 90.8667 49.4365C90.8553 50.2782 90.4445 51.5181 89.5301 52.3907C88.7363 53.1683 87.9694 53.3284 87.3704 53.3284C86.222 53.3284 85.6483 52.5419 85.6768 51.5449C85.7037 50.5512 86.2774 49.2716 87.112 48.4956Z" fill="#231F20"/>
<path d="M94.5198 48.2913L93.7276 50.3079H93.7545C94.6159 48.9852 95.8319 47.5836 96.8841 47.5836C97.7186 47.5836 97.6746 48.3441 97.5654 48.7674C97.4855 49.0526 97.171 49.8416 96.9525 50.3583H96.9811C98.0854 48.5765 99.193 47.5836 100.15 47.5836C100.75 47.5836 100.996 47.9647 100.996 48.3701C100.996 48.6318 100.887 49.0526 100.75 49.4199C100.503 50.0894 99.8499 51.5714 99.6176 52.1198C99.5483 52.2791 99.5483 52.3912 99.6583 52.3912C99.9028 52.3912 100.532 51.8988 100.915 51.4633C101.08 51.4365 101.16 51.5446 101.16 51.7087C100.75 52.4854 99.6045 53.328 98.5361 53.328C98.2916 53.328 98.0455 53.0843 98.0455 52.8941C98.0455 52.7292 98.1278 52.5415 98.3193 52.0906C98.6738 51.2724 99.1376 50.169 99.4668 49.3394C99.576 49.0656 99.6852 48.7414 99.6852 48.5334C99.6852 48.4002 99.6583 48.2913 99.4807 48.2913C99.2223 48.2913 98.7138 48.6838 98.0593 49.5174C97.3478 50.4152 96.708 51.7355 96.0104 53.0843C95.9142 53.2752 95.805 53.328 95.5866 53.328C95.2044 53.328 94.7936 53.2484 94.9028 52.9209C94.9305 52.8389 95.9957 50.0618 96.2965 49.3394C96.3771 49.1493 96.5426 48.7674 96.5426 48.5643C96.5426 48.4002 96.4864 48.2913 96.3364 48.2913C96.0381 48.2913 95.5035 48.6716 94.8221 49.5434C94.1367 50.4152 93.4945 51.7355 92.8539 53.0843C92.7708 53.2752 92.6616 53.328 92.444 53.328C92.0332 53.328 91.6656 53.2484 91.7594 52.9209C91.7993 52.7844 93.0731 49.3118 93.1946 48.9291C93.3185 48.5765 93.2907 48.4684 93.1008 48.4684C92.6616 48.4684 92.2264 48.9056 91.9517 49.2289C91.8156 49.2289 91.7056 49.1209 91.7056 48.9852C92.0894 48.2369 92.8792 47.5836 94.0837 47.5836C94.5752 47.5836 94.6436 47.9769 94.5198 48.2913Z" fill="#231F20"/>
<path d="M105.242 52.7293C105.857 52.6513 106.007 52.5018 106.418 51.1766L108.003 46.1098C108.372 44.9244 108.384 44.692 107.715 44.5466L107.414 44.4783C107.305 44.3947 107.333 44.1769 107.498 44.1078C107.961 44.1363 108.441 44.1493 109.246 44.1493H111.911C112.77 44.1493 113.495 44.1493 113.797 44.1078C113.7 44.341 113.374 45.3607 113.181 46.0814C113.128 46.1919 112.797 46.2195 112.744 46.0814C112.797 45.498 112.797 45.104 112.498 44.9244C112.265 44.7903 111.882 44.6815 111.185 44.6815H110.324C109.969 44.6815 109.944 44.7229 109.807 45.1682L108.944 47.9372C108.848 48.2492 108.863 48.2914 109.178 48.2914H110.092C111.089 48.2914 111.335 48.1931 111.664 47.5959L111.87 47.214C111.951 47.1043 112.254 47.1328 112.306 47.2417C112.169 47.5553 111.979 48.0988 111.815 48.6042C111.649 49.1072 111.528 49.6255 111.419 49.9944C111.335 50.1017 111.063 50.1017 110.981 49.9944L111.022 49.5711C111.076 49.0381 110.844 48.9057 109.928 48.9057H108.986C108.671 48.9057 108.619 48.9292 108.509 49.2989L107.934 51.1766C107.566 52.3637 107.523 52.6513 108.22 52.7293L108.711 52.7845C108.795 52.8942 108.767 53.0982 108.631 53.181C107.852 53.1518 107.251 53.1396 106.636 53.1396C106.047 53.1396 105.503 53.1518 104.806 53.181C104.696 53.0982 104.696 52.8674 104.831 52.7845L105.242 52.7293Z" fill="#231F20"/>
<path d="M114.923 48.9976L114.444 50.4008H114.524C114.934 49.6533 115.399 48.8749 115.74 48.4541C116.18 47.9089 116.547 47.5839 116.957 47.5839C117.393 47.5839 117.586 47.9649 117.586 48.3444C117.586 48.7677 117.272 49.4364 116.847 49.4364C116.683 49.4364 116.628 49.2852 116.574 49.0382C116.518 48.7677 116.438 48.632 116.3 48.632C116.137 48.632 115.822 48.9294 115.37 49.6809C114.867 50.4983 114.293 51.8186 113.732 53.1105C113.664 53.2754 113.487 53.3282 113.268 53.3282C112.996 53.3282 112.517 53.2478 112.638 52.8676C112.939 51.9819 113.622 50.0896 114.005 48.8473C114.073 48.632 114.061 48.4955 113.922 48.4955C113.622 48.4955 113.186 48.8749 112.859 49.2584C112.722 49.2584 112.612 49.1496 112.638 48.9846C112.996 48.3704 113.678 47.5839 114.524 47.5839C115.261 47.5839 115.141 48.3704 114.923 48.9976Z" fill="#231F20"/>
<path d="M119.297 48.9182C119.379 48.6981 119.366 48.564 119.256 48.564C118.982 48.564 118.369 49.0946 117.999 49.4764C117.862 49.4488 117.752 49.3676 117.781 49.2018C118.217 48.5762 119.379 47.5833 120.375 47.5833C120.65 47.5833 120.895 47.8262 120.895 48.0732C120.895 48.1261 120.868 48.2918 120.815 48.4405L119.405 51.9416C119.313 52.1869 119.366 52.3234 119.502 52.3234C119.667 52.3234 120.022 52.0358 120.502 51.5849C121.634 50.4977 122.536 48.7411 123.068 47.6353C123.177 47.5955 123.315 47.5833 123.48 47.5833C123.778 47.5833 124.092 47.719 124.161 47.8522C123.817 48.7411 123.096 50.5229 122.549 52.0098C122.467 52.2276 122.48 52.3754 122.617 52.3754C122.863 52.3754 123.573 51.7782 123.93 51.3817C124.065 51.3817 124.176 51.437 124.176 51.6279C123.793 52.2958 122.48 53.3285 121.525 53.3285C121.221 53.3285 120.992 53.0587 121.114 52.7289L121.96 50.5367H121.934C121.074 51.6807 119.474 53.3285 118.572 53.3285C118.191 53.3285 117.918 53.0035 117.918 52.6777C117.918 52.4859 117.987 52.2536 118.079 52.0098L119.297 48.9182Z" fill="#231F20"/>
<path d="M127.051 45.7269C127.051 45.2931 127.363 44.7909 127.938 44.7909C128.333 44.7909 128.566 45.0095 128.566 45.4296C128.566 45.9187 128.195 46.3688 127.676 46.3688C127.269 46.3688 127.051 46.069 127.051 45.7269ZM126.393 52.1197C126.337 52.2538 126.324 52.3756 126.434 52.3756C126.652 52.3756 127.406 51.8589 127.8 51.4364C127.95 51.4364 128.059 51.5713 128.033 51.7086C127.65 52.2789 126.337 53.3279 125.302 53.3279C125.067 53.3279 124.862 53.0297 124.862 52.907C124.862 52.7567 124.89 52.6072 124.987 52.3756L126.502 48.7933C126.556 48.656 126.556 48.5764 126.475 48.5764C126.311 48.5764 125.738 48.929 125.302 49.3117C125.165 49.3117 125.067 49.1492 125.108 49.0379C125.846 48.1815 127.007 47.5835 127.623 47.5835C127.813 47.5835 128.033 47.7728 128.074 47.9646C128.103 48.0734 128.047 48.2628 127.924 48.5463L126.393 52.1197Z" fill="#231F20"/>
<path d="M131.602 48.4001L130.359 51.9816C130.276 52.2001 130.305 52.3098 130.439 52.3098C130.66 52.3098 131.45 51.7086 131.942 51.1626C132.107 51.191 132.188 51.2723 132.163 51.464C131.559 52.3634 130.222 53.3279 129.346 53.3279C129.073 53.3279 128.855 53.0849 128.855 52.8672C128.855 52.6779 128.896 52.4853 129.019 52.1197L130.289 48.4001H129.25C129.17 48.2782 129.25 48.045 129.387 47.9646L130.535 47.7452L131.41 46.4224C131.494 46.3688 131.602 46.3542 131.738 46.3542C131.929 46.3542 132.122 46.4224 132.174 46.5338L131.792 47.7988H133.158C133.324 47.9646 133.215 48.3172 133.05 48.4001H131.602Z" fill="#231F20"/>
<path d="M106.45 28.1475C105.309 31.7363 102.466 32.2669 99.5654 32.3051H95.977H95.8506V18.4592H98.0813C100.191 18.4828 103.071 18.5145 104.841 19.9908C106.6 21.4858 106.862 23.9111 106.862 25.2241C106.862 26.6249 106.637 27.5877 106.45 28.1475ZM111.275 29.3589C111.667 28.128 111.867 26.7362 111.867 25.2241C111.867 21.6751 110.631 18.7485 108.291 16.7619C105.07 14.0847 100.715 14.036 98.1131 14.0076H90.8335V36.7527H99.6249C105.824 36.6722 109.744 34.1844 111.275 29.3589Z" fill="#231F20"/>
<path d="M82.354 14.0168C81.5024 14.0891 77.0557 14.6693 77.0557 18.9073V28.0536C77.0557 30.9388 75.4975 32.4013 72.4257 32.4013C69.3597 32.4013 67.8039 30.9388 67.8039 28.0536V18.9747C67.8039 14.6685 63.3311 14.0867 62.5015 14.0168V27.2305C62.5015 35.4725 68.7191 36.7026 72.4257 36.7026C76.134 36.7026 82.354 35.4725 82.354 27.2305V14.0168Z" fill="#231F20"/>
<path d="M13.9273 23.4725V17.9711H26.8084V14.0077H8.91016V36.7032H13.9273V27.4416L20.2484 27.4334C22.6136 27.4334 25.0732 26.9589 25.4424 23.4725H13.9273Z" fill="#231F20"/>
<path d="M124.69 14.0176C123.631 14.1095 119.679 14.7237 119.675 18.7708V36.7026H124.69V14.0176Z" fill="#231F20"/>
<path d="M39.6768 24.4128V18.1216H46.8154C48.6589 18.1216 49.9972 19.4541 49.9972 21.2911C49.9972 23.064 48.6899 24.377 46.8887 24.4128H39.8031H39.6768ZM46.4283 33.6233C47.8187 35.9714 49.4731 36.6791 53.7307 36.7018L48.8439 28.3851L49.3354 28.2348C52.4373 27.2793 54.522 24.4891 54.522 21.2911C54.522 17.3123 51.2327 14.0445 47.1887 14.0079H34.6597V36.7026H39.6768V28.5654H43.4478L46.4283 33.6233Z" fill="#231F20"/>
<path d="M142.74 18.1067L145.733 26.7997H139.734L142.74 18.1067ZM138.403 30.6477H147.057L148.242 34.0894C148.991 36.2653 151.563 36.7219 153.589 36.7219C153.781 36.7219 153.969 36.7179 154.149 36.7105L145.78 14.0077H139.709L131.337 36.7089C133.47 36.7707 136.414 36.3969 137.242 34.0017L138.403 30.6477Z" fill="#231F20"/>
</svg>
