<svg width="24" height="24" viewBox="0 0 24 24" fill="none" xmlns="http://www.w3.org/2000/svg">
<path d="M17 2.00049H7C4.23858 2.00049 2 4.23906 2 7.00049V17.0005C2 19.7619 4.23858 22.0005 7 22.0005H17C19.7614 22.0005 22 19.7619 22 17.0005V7.00049C22 4.23906 19.7614 2.00049 17 2.00049Z" stroke="black" stroke-width="2" stroke-linecap="round" stroke-linejoin="round"/>
<path d="M16 11.3705C16.1234 12.2028 15.9813 13.0528 15.5938 13.7996C15.2063 14.5464 14.5932 15.152 13.8416 15.5302C13.0901 15.9085 12.2385 16.0401 11.4078 15.9065C10.5771 15.7728 9.80977 15.3806 9.21485 14.7857C8.61993 14.1908 8.22774 13.4234 8.09408 12.5928C7.96042 11.7621 8.09208 10.9104 8.47034 10.1589C8.8486 9.4074 9.4542 8.79429 10.201 8.40679C10.9478 8.01929 11.7978 7.87713 12.63 8.00055C13.4789 8.12643 14.2649 8.52201 14.8717 9.12885C15.4785 9.7357 15.8741 10.5216 16 11.3705Z" stroke="black" stroke-width="2" stroke-linecap="round" stroke-linejoin="round"/>
<path d="M17.5 6.50049H17.51" stroke="black" stroke-width="2" stroke-linecap="round" stroke-linejoin="round"/>
</svg>
