<svg width="24" height="24" viewBox="0 0 24 24" fill="none" xmlns="http://www.w3.org/2000/svg">
<path d="M22.54 6.42049C22.4212 5.9459 22.1793 5.51106 21.8386 5.15989C21.498 4.80873 21.0707 4.55367 20.6 4.42049C18.88 4.00049 12 4.00049 12 4.00049C12 4.00049 5.11999 4.00049 3.39999 4.46049C2.92924 4.59367 2.50197 4.84873 2.16134 5.19989C1.82071 5.55106 1.57878 5.9859 1.45999 6.46049C1.14521 8.20604 0.991228 9.9768 0.999992 11.7505C0.988771 13.5375 1.14276 15.3218 1.45999 17.0805C1.59095 17.5403 1.8383 17.9586 2.17814 18.295C2.51797 18.6313 2.93881 18.8743 3.39999 19.0005C5.11999 19.4605 12 19.4605 12 19.4605C12 19.4605 18.88 19.4605 20.6 19.0005C21.0707 18.8673 21.498 18.6122 21.8386 18.2611C22.1793 17.9099 22.4212 17.4751 22.54 17.0005C22.8524 15.2681 23.0063 13.5108 23 11.7505C23.0112 9.96344 22.8572 8.17919 22.54 6.42049V6.42049Z" stroke="black" stroke-width="2" stroke-linecap="round" stroke-linejoin="round"/>
<path d="M9.75 15.0205L15.5 11.7505L9.75 8.48047V15.0205Z" stroke="black" stroke-width="2" stroke-linecap="round" stroke-linejoin="round"/>
</svg>
